<svg xmlns:xlink="http://www.w3.org/1999/xlink"  xmlns="http://www.w3.org/2000/svg" fill="currentColor" viewBox="0 0 14 14" width="1em" height="1em" class=""><path fill="#000" fill-rule="evenodd" d="M7.01 0C3.144 0 0 3.14 0 7s3.144 7 7.01 7c.48 0 .941-.05 1.382-.14-.17-.08-.2-.73-.02-1.09.19-.41.811-1.45.2-1.8-.61-.35-.44-.5-.81-.91s-.221-.47-.251-.58c-.08-.34.36-.89.39-.94.02-.06.02-.27 0-.33 0-.08-.27-.22-.34-.23-.06 0-.11.11-.2.13s-.501-.25-.591-.33-.14-.23-.27-.34c-.13-.13-.14-.03-.331-.11-.19-.08-.801-.31-1.282-.48-.48-.19-.52-.47-.52-.66-.02-.2-.301-.47-.421-.67-.14-.2-.16-.47-.2-.41s.25.78.2.81c-.05.02-.16-.2-.3-.38-.141-.19.14-.09-.301-.95-.44-.86.14-1.3.17-1.75s.38.17.19-.13 0-.89-.14-1.11c-.13-.22-.881.25-.881.25.02-.22.69-.58 1.161-.92s.782-.06 1.162.05c.39.13.41.09.28-.05-.13-.13.06-.17.361-.13.28.05.38.41.831.36.47-.03.05.09.11.22s-.06.11-.38.3c-.3.2.02.22.55.61.531.39.381-.25.311-.55s.39-.06.39-.06c.331.22.271.02.501.08s.912.64.912.64c-.832.44-.31.48-.17.59s-.281.3-.281.3c-.17-.17-.19.02-.3.08s-.02.22-.02.22c-.561.09-.441.69-.421.83 0 .14-.38.36-.47.58-.09.2.25.64.06.66-.19.03-.341-.66-1.312-.41-.3.08-.942.41-.591 1.08.36.69.921-.19 1.111-.09s-.06.53-.02.55.531.02.561.61.771.53.921.55c.17 0 .701-.44.771-.45.06-.03.381-.28 1.032.09.66.36.981.31 1.202.47s.08.47.28.58 1.062-.03 1.282.31-.881 2.09-1.222 2.28-.48.64-.841.92c-.36.28-.811.64-1.272.91-.41.23-.47.66-.66.8 3.144-.7 5.487-3.5 5.487-6.84 0-3.86-3.145-7-7.01-7zm1.642 6.56c-.09.03-.28.22-.78-.08-.481-.3-.812-.23-.862-.28 0 0-.05-.11.17-.14.44-.05.982.41 1.112.41s.19-.13.41-.05.05.13-.05.14M6.35.7c-.05-.03.03-.08.09-.14.03-.03.02-.11.05-.14.11-.11.611-.25.521.03-.11.27-.58.3-.66.25m1.232.89c-.19-.02-.581-.05-.52-.14.3-.28-.091-.38-.341-.38-.25-.02-.34-.16-.22-.19s.61.02.7.08c.08.06.521.25.551.38.02.13 0 .25-.17.25m1.472-.05c-.14.09-.831-.41-.951-.52C7.54.54 7.21.71 7.1.61s-.08-.19.11-.34.691.06 1.002.09c.3.03.66.27.66.55.02.25.331.5.191.63z" clip-rule="evenodd"></path></svg>